# Blender v2.77 (sub 0) OBJ File: ''
# www.blender.org
mtllib pyramid2.mtl
o pyramid.009
v 0.000000 0.000000 0.000000
v -0.500000 1.000000 0.500000
v 0.500000 1.000000 0.500000
v -0.500000 1.000000 -0.500000
v 0.500000 1.000000 -0.500000
vt 0.3231 0.5000
vt 0.0000 0.1667
vt 0.3231 0.0000
vt 0.1769 0.5000
vt 0.3539 0.9564
vt 0.0000 0.9564
vt 0.6461 0.0000
vt 0.6461 0.5000
vt 0.3231 0.3333
vt 0.6769 1.0000
vt 0.3539 0.6667
vt 0.6769 0.5000
vt 0.6461 0.0000
vt 1.0000 0.0000
vt 1.0000 0.4082
vt 0.6461 0.4082
vn 0.0000 -0.4472 0.8944
vn -0.8944 -0.4472 -0.0000
vn 0.0000 -0.4472 -0.8944
vn 0.8944 -0.4472 -0.0000
vn 0.0000 1.0000 0.0000
usemtl None
s off
f 1/1/1 3/2/1 2/3/1
f 1/4/2 2/5/2 4/6/2
f 1/7/3 4/8/3 5/9/3
f 1/10/4 5/11/4 3/12/4
f 2/13/5 3/14/5 5/15/5
f 2/13/5 5/15/5 4/16/5
